<?xml version="1.0" encoding="utf-8"?>
<svg version="1.1" xmlns="http://www.w3.org/2000/svg" xmlns:xlink="http://www.w3.org/1999/xlink" x="0px" y="0px"
	 viewBox="0 0 173.3 171.3"  class="svg-map-icon svg-map-paradise" fill="currentColor" xml:space="preserve">
  <g>
    <path d="M27.58,142.35a38.86,38.86,0,0,1-7.56-.81,3,3,0,1,1,1.16-5.88c10.64,2.11,15.76-.64,21.48-6.46,7.46-7.46,21.78-7.55,30.65-.21,13.19,10.93,21.38,7,27.66,1.72,8.59-7.19,15.8-7.94,20.33-7.31a18,18,0,0,1,12.48,7.91,8.76,8.76,0,0,0,6,3.82,16.07,16.07,0,0,0,11.16-2.65,3,3,0,1,1,3.56,4.84A21.93,21.93,0,0,1,138.74,141a14.71,14.71,0,0,1-9.93-6.36,11.93,11.93,0,0,0-8.34-5.34c-4.78-.67-10.18,1.4-15.64,6-11.11,9.36-22.67,8.81-35.34-1.69-7.13-5.9-17.8-5-22.57-.19C41.68,138.75,36.14,142.35,27.58,142.35Z" transform="translate(-6.3 -10.7)"/>
    <path d="M89,163.51c-5.8,0-11.76-2.28-17-6.83-3.72-3.23-9.89-4.85-16.12-4.25s-11.4,3.23-14.66,7.41a3,3,0,1,1-4.74-3.68c4.29-5.5,11-8.94,18.82-9.7s15.64,1.35,20.62,5.68c7.82,6.71,17,7.17,24,1.18,5.46-4.68,11.5-8.92,18.68-8.34,5.51.46,10.71,3.7,15.88,9.9a3,3,0,1,1-4.6,3.84c-4.09-4.9-8-7.44-11.78-7.76-5-.41-9.8,3.08-14.27,6.92A22.44,22.44,0,0,1,89,163.51Z" transform="translate(-6.3 -10.7)"/>
    <path d="M88.6,139.4" transform="translate(-6.3 -10.7)"/>
    <g>
      <path d="M166.9,118.7,161.8,90a3.2,3.2,0,0,0-3.1-2.6h-2.8v-8a3.1,3.1,0,1,0-6.2,0v8H136.6l-6.8-73.8a3.15,3.15,0,0,0-3.1-2.9H113.5a3.12,3.12,0,0,0-3.1,3.1V30.5h-55A12.29,12.29,0,0,0,43.1,42.8v9.4H31.2a3.12,3.12,0,0,0-3.1,3.1V72A37.57,37.57,0,0,0,6.3,105.8v13.5a3.1,3.1,0,0,0,6.2,0V105.8A30.49,30.49,0,0,1,32.3,77.3a3.14,3.14,0,0,0,2-2.9V58.7H58V74.3a3,3,0,0,0,2,2.9,30.63,30.63,0,0,1,19.8,28.5v13.5a3.1,3.1,0,1,0,6.2,0V105.7a37.44,37.44,0,0,0-3.8-16.2V72.2a6.3,6.3,0,0,1,12.6,0v46.1a3.1,3.1,0,1,0,6.2,0V93.7h54.9l4.7,26.1a3.2,3.2,0,0,0,3.1,2.6h.6A3.17,3.17,0,0,0,166.9,118.7Zm-78.3-59A12.61,12.61,0,0,0,76,72.3v8.4a36.13,36.13,0,0,0-11.7-8.3V55.6a3.12,3.12,0,0,0-3.1-3.1H49.4V43a6.12,6.12,0,0,1,6.1-6.1h54.8V87.4h-9.1V72.2A12.66,12.66,0,0,0,88.6,59.7Zm27.9,27.7V17.1h7.1l6.5,70.3Z" transform="translate(-6.3 -10.7)"/>
      <path d="M111.7,99.9a3.12,3.12,0,0,0-3.1,3.1v5.5a3.1,3.1,0,1,0,6.2,0V103A3.12,3.12,0,0,0,111.7,99.9Z" transform="translate(-6.3 -10.7)"/>
      <path d="M128.9,99.9a3.12,3.12,0,0,0-3.1,3.1v5.5a3.1,3.1,0,1,0,6.2,0V103A3,3,0,0,0,128.9,99.9Z" transform="translate(-6.3 -10.7)"/>
      <path d="M146.2,99.9a3.12,3.12,0,0,0-3.1,3.1v5.5a3.1,3.1,0,0,0,6.2,0V103A3.12,3.12,0,0,0,146.2,99.9Z" transform="translate(-6.3 -10.7)"/>
    </g>
  </g>
</svg>
